<?xml version="1.0" encoding="UTF-8"?>
<!-- Generator: Adobe Illustrator 27.8.1, SVG Export Plug-In . SVG Version: 6.00 Build 0)  -->
<svg xmlns="http://www.w3.org/2000/svg" xmlns:xlink="http://www.w3.org/1999/xlink" version="1.1" x="0px" y="0px" viewBox="0 0 296.8 128.1" style="enable-background:new 0 0 296.8 128.1;" xml:space="preserve">
<style type="text/css">
	.st0{fill:#005581;}
	.st1{fill:#FDB924;}
</style>
<g id="Layer_1">
</g>
<g id="Layer_2">
	<g>
		<g>
			<path class="st0" d="M44.9,128.1h-4.8c-1.1-2.6-2.2-5.3-3.4-7.9c-1.1-2.7-2.2-5.3-3.4-7.9H20.8c-1.1,2.6-2.2,5.3-3.4,7.9     c-1.1,2.7-2.2,5.3-3.4,7.9H9.3c3-7,5.9-14,8.9-21c2.9-7,5.9-14,8.9-21c3,7,5.9,14,8.9,21C38.9,114.1,41.9,121.1,44.9,128.1z      M27.6,98.6l-0.5-1.9c-0.5,1.9-1.2,3.8-2,5.6c-0.8,1.8-1.6,3.6-2.4,5.4h8.7c-0.7-1.5-1.3-3-1.9-4.6     C28.9,101.6,28.3,100.1,27.6,98.6z"></path>
			<path class="st0" d="M73.2,121.9l2.6,3.8c-1.5,0.9-3.2,1.6-4.9,2.1c-1.7,0.5-3.6,0.8-5.5,0.8c-2.8,0-5.5-0.5-8-1.6     c-2.5-1.1-4.7-2.5-6.5-4.4c-1.9-1.9-3.3-4-4.4-6.5c-1.1-2.5-1.6-5.1-1.6-8c0-2.8,0.5-5.5,1.6-8c1.1-2.5,2.5-4.7,4.4-6.5     c1.9-1.9,4-3.3,6.5-4.4c2.5-1.1,5.1-1.6,8-1.6c1.9,0,3.8,0.2,5.5,0.7c1.7,0.5,3.4,1.2,5,2.1c-0.4,0.7-0.9,1.3-1.3,1.9     c-0.5,0.6-0.9,1.3-1.3,1.9c-1.2-0.7-2.4-1.2-3.7-1.6c-1.3-0.4-2.7-0.6-4.1-0.6c-2.2,0-4.2,0.4-6.1,1.3c-1.9,0.8-3.6,2-5,3.5     c-1.4,1.5-2.6,3.2-3.4,5.1c-0.8,1.9-1.2,4-1.2,6.2s0.4,4.2,1.2,6.2c0.8,1.9,1.9,3.6,3.4,5.1c1.4,1.4,3.1,2.6,5,3.4     c1.9,0.8,3.9,1.3,6.1,1.3C68.1,124.1,70.8,123.3,73.2,121.9z"></path>
			<path class="st0" d="M80.2,86.2c3.5,4.5,7,9.1,10.5,13.6c3.5,4.5,7,9.1,10.5,13.6c3.5-4.5,7-9.1,10.5-13.6     c3.5-4.5,7-9.1,10.5-13.6v42h-4.8v-26.9c0-0.3,0.1-0.6,0.1-0.9c0-0.3,0-0.6,0.1-0.9c-2.5,3.7-5.2,7.4-8,10.9     c-2.8,3.5-5.6,7.1-8.4,10.7c-2.6-3.4-5.1-6.7-7.7-10c-2.6-3.3-5.1-6.7-7.7-10l-1-1.5c0,0.3,0.1,0.6,0.1,0.9c0,0.3,0,0.6,0.1,0.9     v26.9h-4.8V86.2z"></path>
		</g>
	</g>
	<polygon class="st0" points="76.9,27.9 76.9,27.9 76.9,28  "></polygon>
	<path class="st1" d="M84.1,10c1,6-0.3,11.7-2,17.4c-2.9,9.5-9.3,15.2-16.8,19.6c-6,3.6-11.6,7.8-14.3,15.3c-1,2.6-1.4,5.4-2.2,8.4   c-0.9-3.9-0.8-7.6,0-11.4c2.3-10.6,9.4-16.5,17.2-21.8c5.4-3.6,10.5-7.8,13.9-14C82.1,19.3,83.3,14.8,84.1,10z"></path>
	<g>
		<path class="st0" d="M72.4,6.8v5.1v6.7c2.7-3.1,4.7-6.7,5.9-10.9c-0.8-0.2-1.6-0.3-2.5-0.4V3.4V0h-3.4H59.5h-3.4v3.4v3.8    C24.4,11.9,0,39.4,0,72.4c0,14.7,4.8,28.2,13,39.2c0.8-1.8,1.6-3.7,2.3-5.5C9.4,97.3,5.7,86.9,5.1,75.6h24.9    c0.1,3.5,0.4,6.9,0.9,10.2c1.6,3.7,3.1,7.4,4.7,11.1l2.5-1.2c-1.6-6.1-2.8-12.9-3-20h6.1c-0.4-0.6-0.7-1.3-1-2c-0.4-1-0.8-2-1.1-3    h-4c0.3-8.2,1.8-16,4-23h2.2c0.5-1,1-1.9,1.5-2.8c0.1-0.2,0.2-0.3,0.3-0.5h-2.9h-5.4H24.7v-10v-2.8h4.8h10.6h5.7h10.4    c1-0.7,2-1.4,3-2c0.1-0.1,0.2-0.1,0.3-0.2V11.8V6.8V3.4h0h12.9V6.8z M33.8,47.6c-2,6.9-3.5,14.7-3.8,23h-25    C5.5,55.5,11.5,41.7,21,31.3c0.1,0.1,0.2,0.2,0.3,0.2v12.6v3.4h3.4H33.8z M42.4,26.7c-0.2,0.4-0.4,0.8-0.6,1.2H24.9    c-0.1-0.1-0.2-0.1-0.3-0.2C31.9,21,40.8,16,50.7,13.4C48.4,16.6,45.4,21.1,42.4,26.7z M56.1,27.9h-8.6c3.3-6,6.5-10.6,8.6-13.3    V27.9z"></path>
		<path class="st0" d="M82.7,8.6c-0.6-0.2-1.3-0.3-1.9-0.4c-0.2,3.3-0.9,6.8-2.2,10c0.4,0.6,0.8,1.2,1.2,1.8    C81.4,16.6,82.6,12.5,82.7,8.6z"></path>
		<path class="st0" d="M125.9,99.7c3.8-8.3,6-17.6,6-27.4c0-30.4-20.7-56.1-48.7-63.6c0.3,1.4,0.4,3,0.3,4.7    c0.2-1.1,0.5-2.3,0.6-3.4c0.3,1.5,0.4,2.9,0.4,4.4c8.6,2.7,16.4,7.3,22.9,13.3c-0.1,0.1-0.2,0.1-0.3,0.2H90.5    c-0.2-0.4-0.4-0.8-0.6-1.2c-1.9-3.6-3.8-6.7-5.5-9.3c-0.2,2.5-0.8,4.9-1.4,7.4c0.6,1,1.2,2.1,1.8,3.2H82c-0.4,1.2-0.8,2.3-1.3,3.4    h5.8h5.7h10.3h4.8v2.9l0,0v10h0h-9.9H92H79.7c-0.4,1.2-0.8,2.3-1.4,3.4h14.8c2.2,7,3.7,14.7,4,23H75.8v-19c-1,1.3-2.2,2.5-3.4,3.6    v15.4v5v9.5c1.2,0.3,2.3,0.8,3.4,1.3V75.6h21.3c-0.2,7.9-1.6,15.2-3.5,21.9c0.1,0.1,0.1,0.2,0.2,0.2c1.2,1.6,2.4,3.1,3.6,4.7    c2.5-7.8,4.5-16.8,4.8-26.8h24.6c-0.1,2.5-0.4,4.9-0.8,7.2V99.7z M102.1,70.6c-0.3-8.3-1.7-16-3.8-23h8.8h3.4v-3.4V31.6    c0.1-0.1,0.2-0.2,0.3-0.2c9.5,10.4,15.5,24.1,15.9,39.2H102.1z"></path>
		<path class="st0" d="M56.1,70.6L56.1,70.6L56.1,70.6c-0.1,0.2-0.3,0.5-0.4,0.7c-0.6,1.5-1,2.9-1.2,4.3h1.5v10.6    c0.1,0,0.1-0.1,0.2-0.1c1-0.5,2.1-0.8,3.2-1.1v-9.3v-5v-4.8c-1,1.1-2,2.3-2.8,3.6C56.5,69.8,56.3,70.2,56.1,70.6z"></path>
		<path class="st0" d="M50.6,70.6h-4.8c0.4,1.7,0.9,3.4,1.6,5h3.3C50.4,73.8,50.4,72.1,50.6,70.6z"></path>
	</g>
	<path class="st1" d="M80.3,0.2c0,9.6-4,16.5-10.2,22c-3.1,2.7-6.4,5.1-9.8,7.3c-6.2,4.1-12.2,8.6-16.4,15.5   c-2.8,4.6-4.7,9.5-5,14.9c-0.3,4.8,0.6,9.7,2.4,13.9c2.5,5.9,7.5,8.9,12.3,11.9c-0.6-0.6-1.2-1.1-1.6-1.7   c-6.1-8.2-9.6-19.4-4.8-30.7c3-7.1,8-12,13.7-16.2c3.6-2.7,7.2-5.4,10.7-8.3C79.5,22.1,82.3,9,80.3,0.2z"></path>
	<path class="st1" d="M56.7,69.4c2.3-3.9,6-6.7,9.5-9.2c7-5,14.3-11.5,14.3-21.7c-1.6,1.7-3.1,3.9-5,5.3c-4.2,3.2-8.5,6-12.8,9   c-6,4-9.7,9.7-10.9,17.4c-0.7,4.6-0.1,11.2,3.6,14c-1.1-4.3-1.5-8.6,0.4-12.9C56,70.6,56.4,70,56.7,69.4z"></path>
	<g>
		<path class="st1" d="M158.1,61.2h-8.9l-2.7,6.9h-2.8l8.7-22.4h2.5l8.7,22.4h-2.9L158.1,61.2z M154.8,51.9    c-0.2-0.5-0.8-2.6-1.1-3.3c-0.3,1.3-0.7,2.6-1,3.3l-2.5,6.8h7.1L154.8,51.9z M164.2,59.7c0-5.8,2.8-8.7,6.9-8.7    c2.6,0,4.2,1.1,5.2,2.5h0.2c-0.1-0.5-0.2-1.8-0.2-2.5v-5.6l2.8-1.1v23.8h-2.2l-0.4-2.3h-0.1c-1,1.4-2.6,2.6-5.2,2.6    C166.9,68.4,164.2,65.5,164.2,59.7z M176.4,60.3v-0.5c0-4.2-1.1-6.5-4.9-6.5c-3,0-4.4,2.5-4.4,6.5c0,4,1.5,6.3,4.5,6.3    C175.1,66.1,176.4,64.2,176.4,60.3z M181.4,51.3h2.9l3.6,9.9c0.5,1.4,1.2,3.4,1.3,4.4h0.1c0.2-1,0.9-3.1,1.4-4.4l3.6-9.9h2.9    L191,68.1h-3.2L181.4,51.3z M212.6,58.6v1.7h-11.5c0.1,3.8,2,5.8,5.4,5.8c1.6,0,3.3-0.3,4.6-0.8l0.8,2.1c-1.7,0.8-3.2,1.1-5.5,1.1    c-4.8,0-8.1-3-8.1-8.6c0-5.5,3-8.8,7.4-8.8C210,51,212.6,54,212.6,58.6z M201.2,58h8.5c0-2.8-1.3-4.8-4.1-4.8    C203,53.2,201.5,55,201.2,58z M229.8,57.2v10.9H227V57.3c0-2.7-1.2-4-3.8-4c-3.7,0-4.9,2.2-4.9,6.1v8.7h-2.8V51.3h2.2l0.4,2.3h0.2    c1.1-1.8,3.2-2.6,5.3-2.6C227.7,51,229.8,52.8,229.8,57.2z M241,65.7l0.8,2c-0.6,0.4-1.8,0.7-3.1,0.7c-2.6,0-4.9-1.1-4.9-5.2V48.5    l2.8-1v3.8h4.9v2.1h-4.9v9.7c0,2,1.1,3,2.6,3C239.7,66.1,240.6,65.9,241,65.7z M247.8,46.8c0,1.2-0.8,1.8-1.6,1.8    c-0.9,0-1.6-0.6-1.6-1.8c0-1.2,0.7-1.8,1.6-1.8C247.1,45,247.8,45.5,247.8,46.8z M247.6,68.1h-2.8V51.3h2.8V68.1z M263.2,63.4    c0-2.7-1.8-3.8-5-5c-3.2-1.2-4.3-1.8-4.3-3.2c0-1.3,1.2-2,3.5-2c1.6,0,3.3,0.5,4.7,1.1l0.8-2.2c-1.6-0.7-3.3-1.1-5.4-1.1    c-3.8,0-6.3,1.6-6.3,4.4c0,2.8,1.9,3.8,5.2,5c3.3,1.3,4.1,2,4.1,3.3c0,1.5-1.2,2.5-4,2.5c-1.6,0-3.4-0.5-4.5-1l-0.8,2.1    c1.3,0.7,2.9,1.1,5.3,1.1C260.6,68.4,263.2,66.7,263.2,63.4z M271.9,66.1c-1.5,0-2.6-1-2.6-3v-9.7h4.9v-2.1h-4.9v-3.8l-2.8,1v14.7    c0,4.1,2.3,5.2,4.9,5.2c1.3,0,2.5-0.3,3.1-0.7l-0.8-2C273.4,65.9,272.6,66.1,271.9,66.1z M277.5,48.8c1.2,0,2.1-0.9,2.1-2.1    c0-1.2-0.9-2.1-2.1-2.1c-1.2,0-2.1,0.9-2.1,2.1C275.5,47.9,276.3,48.8,277.5,48.8z M277.5,48.5c-1,0-1.8-0.8-1.8-1.8    c0-1,0.7-1.8,1.8-1.8c1,0,1.8,0.8,1.8,1.8C279.3,47.7,278.5,48.5,277.5,48.5z M276.7,47.9h0.4v-1h0.3l0.6,1h0.5l-0.7-1.1    c0.2-0.1,0.4-0.3,0.4-0.6c0-0.5-0.3-0.8-0.9-0.8h-0.7V47.9z M277.2,46.6v-0.8h0.3c0.3,0,0.5,0.1,0.5,0.4c0,0.3-0.2,0.4-0.5,0.4    H277.2z"></path>
		<path class="st1" d="M146.6,85.9c0,5.5,2.6,9,7.7,9c1.9,0,4.3-0.4,5.8-1.1l0.8,2.2c-2.5,1.2-4.2,1.4-7,1.4    c-6.9,0-10.3-4.5-10.3-11.5c0-6.8,3.8-11.5,10.7-11.5c2.3,0,4.3,0.4,6,1.2l-0.9,2.5c-1.4-0.6-3.1-1.2-5.1-1.2    C149.6,76.9,146.6,80.3,146.6,85.9z"></path>
		<path class="st1" d="M166.3,80.3c0,0.8-0.1,1.7-0.2,2.3h0.2c1.1-1.7,3.1-2.6,5.2-2.6c4.1,0,6.1,1.8,6.1,6.1v10.9H175V86.3    c0-2.7-1.2-4-3.8-4c-3.8,0-4.9,2.2-4.9,6.1v8.7h-2.8V74.3l2.8-1V80.3z"></path>
		<path class="st1" d="M194.7,85.7v11.4h-2l-0.5-2.4H192c-1.5,1.8-2.8,2.7-5.6,2.7c-3,0-5.3-1.6-5.3-5c0-3.3,2.6-5.2,8-5.4L192,87    v-1c0-2.8-1.3-3.7-3.5-3.7c-1.8,0-3.3,0.6-4.7,1.3l-0.8-2.1c1.5-0.8,3.5-1.4,5.7-1.4C192.7,80,194.7,81.7,194.7,85.7z M189.5,89    c-4.2,0.2-5.5,1.3-5.5,3.5c0,1.9,1.3,2.7,3.1,2.7c2.8,0,4.9-1.5,4.9-4.8v-1.5L189.5,89z"></path>
		<path class="st1" d="M214.1,88.7c0,5.7-2.8,8.7-6.9,8.7c-2.6,0-4.2-1.1-5.2-2.4h-0.2c0.1,0.7,0.2,2,0.2,2.8v4.9h-2.8V80.3h2.3    l0.4,2.3h0.1c1-1.4,2.5-2.6,5.2-2.6C211.3,80,214.1,82.9,214.1,88.7z M202,88.1v0.5c0,4.1,1.1,6.4,4.8,6.4c3,0,4.5-2.7,4.5-6.5    c0-3.8-1.4-6.3-4.5-6.3C203.3,82.3,202,84.2,202,88.1z"></path>
		<path class="st1" d="M217.9,97.1V74.4l2.8-1.1v23.8H217.9z"></path>
		<path class="st1" d="M237.7,85.7v11.4h-2l-0.5-2.4H235c-1.5,1.8-2.8,2.7-5.6,2.7c-3,0-5.3-1.6-5.3-5c0-3.3,2.6-5.2,8-5.4L235,87    v-1c0-2.8-1.3-3.7-3.5-3.7c-1.8,0-3.3,0.6-4.7,1.3l-0.8-2.1c1.5-0.8,3.5-1.4,5.7-1.4C235.7,80,237.7,81.7,237.7,85.7z M232.5,89    c-4.2,0.2-5.5,1.3-5.5,3.5c0,1.9,1.3,2.7,3.1,2.7c2.8,0,4.9-1.5,4.9-4.8v-1.5L232.5,89z"></path>
		<path class="st1" d="M245.2,75.8c0,1.2-0.8,1.8-1.6,1.8c-0.9,0-1.6-0.6-1.6-1.8c0-1.2,0.7-1.8,1.6-1.8    C244.5,74,245.2,74.5,245.2,75.8z M245,97.1h-2.8V80.3h2.8V97.1z"></path>
		<path class="st1" d="M263.8,86.2v10.9h-2.7V86.3c0-2.7-1.2-4-3.8-4c-3.7,0-4.9,2.2-4.9,6.1v8.7h-2.8V80.3h2.2l0.4,2.3h0.2    c1.1-1.8,3.2-2.6,5.3-2.6C261.8,80,263.8,81.8,263.8,86.2z"></path>
		<path class="st1" d="M267.5,88.8c0-6.2,3.3-8.8,7.9-8.8c1.7,0,3.4,0.4,4.4,0.9l-0.9,2.3c-1-0.4-2.5-0.8-3.6-0.8    c-3.3,0-4.9,2.2-4.9,6.4c0,4,1.6,6.3,4.8,6.3c1.4,0,2.6-0.3,3.7-0.8l0.8,2.2c-0.9,0.6-2.6,1-4.5,1    C270.7,97.4,267.5,94.7,267.5,88.8z"></path>
		<path class="st1" d="M283.1,80.3l3.6,9.5c0.6,1.7,1.2,3.2,1.4,4.6h0.1c0.2-1,0.8-2.9,1.4-4.6l3.4-9.5h3l-7.2,19.1    c-1.2,3.2-2.3,4.3-4.5,5.2l-0.8-2.2c1.3-0.6,1.8-1.2,2.5-3l0.9-2.2l-6.8-16.8H283.1z"></path>
		<path class="st1" d="M147.3,108.5h-0.1c0.1,1.3,0.2,3.7,0.2,6v13.6h-2.6v-22.3h4.2l6.9,18.3h0.1l7-18.3h4.1v22.3h-2.8v-13.7    c0-2.2,0.1-4.5,0.2-5.8h-0.1l-7.4,19.6h-2.3L147.3,108.5z"></path>
		<path class="st1" d="M175.2,106.8c0,1.2-0.8,1.8-1.6,1.8c-0.9,0-1.6-0.6-1.6-1.8c0-1.2,0.7-1.8,1.6-1.8    C174.4,105,175.2,105.5,175.2,106.8z M174.9,128.1h-2.8v-16.8h2.8V128.1z"></path>
		<path class="st1" d="M193.8,117.2v10.9h-2.7v-10.7c0-2.7-1.2-4-3.8-4c-3.7,0-4.9,2.2-4.9,6.1v8.7h-2.8v-16.8h2.2l0.4,2.3h0.2    c1.1-1.8,3.2-2.6,5.3-2.6C191.7,111,193.8,112.8,193.8,117.2z"></path>
		<path class="st1" d="M201.4,106.8c0,1.2-0.8,1.8-1.6,1.8c-0.9,0-1.6-0.6-1.6-1.8c0-1.2,0.7-1.8,1.6-1.8    C200.6,105,201.4,105.5,201.4,106.8z M201.1,128.1h-2.8v-16.8h2.8V128.1z"></path>
		<path class="st1" d="M210,128.4c-2.3,0-4-0.4-5.3-1.1l0.8-2.1c1.1,0.5,2.9,1,4.5,1c2.8,0,4-1,4-2.5c0-1.3-0.8-2-4.1-3.3    c-3.3-1.3-5.2-2.3-5.2-5c0-2.8,2.5-4.4,6.3-4.4c2,0,3.8,0.4,5.4,1.1l-0.8,2.2c-1.4-0.6-3.1-1.1-4.7-1.1c-2.3,0-3.5,0.8-3.5,2    c0,1.4,1.1,2,4.3,3.2c3.2,1.2,5,2.3,5,5C216.7,126.7,214.1,128.4,210,128.4z"></path>
		<path class="st1" d="M226.7,125.7l0.8,2c-0.6,0.4-1.8,0.7-3.1,0.7c-2.6,0-4.9-1.1-4.9-5.2v-14.7l2.8-1v3.8h4.9v2.1h-4.9v9.7    c0,2,1.1,3,2.6,3C225.5,126.1,226.3,125.9,226.7,125.7z"></path>
		<path class="st1" d="M239.7,111.2l-0.3,2.5c-0.5-0.1-1.3-0.2-1.8-0.2c-2.6,0-4.9,2.3-4.9,5.6v9h-2.8v-16.8h2.3l0.3,3.1h0.1    c1.1-1.8,2.8-3.4,5.1-3.4C238.4,111,239.2,111.1,239.7,111.2z"></path>
		<path class="st1" d="M245.2,106.8c0,1.2-0.8,1.8-1.6,1.8c-0.9,0-1.6-0.6-1.6-1.8c0-1.2,0.7-1.8,1.6-1.8    C244.5,105,245.2,105.5,245.2,106.8z M245,128.1h-2.8v-16.8h2.8V128.1z"></path>
		<path class="st1" d="M263.1,118.6v1.7h-11.5c0.1,3.8,2,5.8,5.4,5.8c1.6,0,3.3-0.3,4.6-0.8l0.8,2.1c-1.7,0.8-3.2,1.1-5.5,1.1    c-4.8,0-8.1-3-8.1-8.6c0-5.5,3-8.8,7.4-8.8C260.5,111,263.1,114,263.1,118.6z M251.7,118h8.5c0-2.8-1.3-4.8-4.1-4.8    C253.5,113.2,251.9,115,251.7,118z"></path>
		<path class="st1" d="M270.9,128.4c-2.3,0-4-0.4-5.3-1.1l0.8-2.1c1.1,0.5,2.9,1,4.5,1c2.8,0,4-1,4-2.5c0-1.3-0.8-2-4.1-3.3    c-3.3-1.3-5.2-2.3-5.2-5c0-2.8,2.5-4.4,6.3-4.4c2,0,3.8,0.4,5.4,1.1l-0.8,2.2c-1.4-0.6-3.1-1.1-4.7-1.1c-2.3,0-3.5,0.8-3.5,2    c0,1.4,1.1,2,4.3,3.2c3.2,1.2,5,2.3,5,5C277.6,126.7,275,128.4,270.9,128.4z"></path>
	</g>
</g>
</svg>
