<?xml version="1.0" encoding="UTF-8"?>
<svg width="434px" height="166px" viewBox="0 0 434 166" version="1.1" xmlns="http://www.w3.org/2000/svg" xmlns:xlink="http://www.w3.org/1999/xlink">
    <!-- Generator: Sketch 64 (93537) - https://sketch.com -->
    <title>adventist-education</title>
    <desc>Created with Sketch.</desc>
    <defs>
        <path d="M15.818,155 L16.748,152.551 L6.487,152.551 L6.487,144.646 L14.795,144.646 L14.795,142.228 L6.487,142.228 L6.487,135.315 L16.066,135.315 L16.066,132.866 L3.697,132.866 L3.697,155 L15.818,155 Z M27.182,155 C34.467,155 38.745,151.187 38.745,143.716 C38.745,136.617 34.498,132.866 27.833,132.866 L21.013,132.866 L21.013,155 L27.182,155 Z M26.81,152.613 L23.803,152.613 L23.803,135.253 L27.43,135.253 C32.762,135.253 35.8,137.919 35.8,143.809 C35.8,149.637 32.793,152.613 26.81,152.613 Z M51.938,155.31 C57.797,155.31 60.556,151.776 60.556,147.188 L60.556,132.866 L57.797,132.866 L57.797,147.188 C57.797,150.536 56.092,152.892 52.093,152.892 C48.218,152.892 46.296,150.815 46.296,147.219 L46.296,132.866 L43.506,132.866 L43.506,147.126 C43.506,152.055 46.42,155.31 51.938,155.31 Z M75.516,155.31 C78.306,155.31 79.949,155.031 82.429,153.884 L81.623,151.745 C80.197,152.427 77.841,152.861 75.919,152.861 C70.835,152.861 68.293,149.42 68.293,143.933 C68.293,138.384 71.207,135.005 75.95,135.005 C77.934,135.005 79.608,135.594 80.972,136.214 L81.902,133.765 C80.228,132.928 78.244,132.556 75.981,132.556 C69.13,132.556 65.348,137.206 65.348,143.902 C65.348,150.877 68.727,155.31 75.516,155.31 Z M85.95,155 L88.585,148.149 L97.358,148.149 L100.024,155 L102.907,155 L94.289,132.773 L91.778,132.773 L83.129,155 L85.95,155 Z M96.521,145.669 L89.515,145.669 L92.026,138.973 C92.274,138.26 92.677,136.927 92.987,135.656 C93.204,136.431 93.855,138.477 94.041,138.973 L96.521,145.669 Z M110.861,155 L110.861,135.315 L117.743,135.315 L117.743,132.866 L102.088,132.866 L101.158,135.315 L108.071,135.315 L108.071,155 L110.861,155 Z M127.402,155 L127.402,152.52 L124.798,152.52 L124.798,135.315 L126.472,135.315 L127.402,132.866 L119.404,132.866 L119.404,135.315 L122.008,135.315 L122.008,152.52 L120.334,152.52 L119.404,155 L127.402,155 Z M140.874,155.31 C147.539,155.31 151.073,150.753 151.073,143.902 C151.073,137.02 147.539,132.525 140.905,132.525 C133.961,132.525 130.644,137.082 130.644,143.871 C130.644,150.722 133.961,155.31 140.874,155.31 Z M140.874,152.892 C135.883,152.892 133.589,149.482 133.589,143.902 C133.589,138.322 135.883,134.974 140.905,134.974 C145.896,134.974 148.128,138.322 148.128,143.902 C148.128,149.482 145.896,152.892 140.874,152.892 Z M158.624,155 L158.624,142.631 C158.624,140.368 158.469,138.074 158.376,136.617 L158.5,136.617 L170.342,155 L173.597,155 L173.597,132.866 L170.993,132.866 L170.993,145.359 C170.993,147.374 171.148,150.195 171.21,151.187 L171.086,151.187 L159.275,132.866 L156.051,132.866 L156.051,155 L158.624,155 Z M194,155 C201.285,155 205.563,151.187 205.563,143.716 C205.563,136.617 201.316,132.866 194.651,132.866 L187.831,132.866 L187.831,155 L194,155 Z M193.628,152.613 L190.621,152.613 L190.621,135.253 L194.248,135.253 C199.58,135.253 202.618,137.919 202.618,143.809 C202.618,149.637 199.611,152.613 193.628,152.613 Z M222.662,155 L223.592,152.551 L213.331,152.551 L213.331,144.646 L221.639,144.646 L221.639,142.228 L213.331,142.228 L213.331,135.315 L222.91,135.315 L222.91,132.866 L210.541,132.866 L210.541,155 L222.662,155 Z M230.647,155 L230.647,146.382 L233.189,146.382 C239.823,146.382 242.024,143.034 242.024,139.376 C242.024,135.253 239.513,132.866 233.716,132.866 L227.857,132.866 L227.857,155 L230.647,155 Z M232.879,143.995 L230.647,143.995 L230.647,135.253 L233.468,135.253 C237.374,135.253 239.141,136.648 239.141,139.5 C239.141,142.755 237.095,143.995 232.879,143.995 Z M244.956,155 L247.591,148.149 L256.364,148.149 L259.03,155 L261.913,155 L253.295,132.773 L250.784,132.773 L242.135,155 L244.956,155 Z M255.527,145.669 L248.521,145.669 L251.032,138.973 C251.28,138.26 251.683,136.927 251.993,135.656 C252.21,136.431 252.861,138.477 253.047,138.973 L255.527,145.669 Z M267.821,155 L267.821,145.855 L272.223,145.855 L277.586,155 L280.841,155 L274.765,145.08 C276.997,144.305 279.198,142.693 279.198,139.159 C279.198,134.943 276.625,132.866 271.138,132.866 L265.031,132.866 L265.031,155 L267.821,155 Z M271.138,143.499 L267.821,143.499 L267.821,135.284 L270.983,135.284 C274.61,135.284 276.315,136.4 276.315,139.283 C276.315,142.073 274.734,143.499 271.138,143.499 Z M291.399,155 L291.399,135.315 L298.281,135.315 L298.281,132.866 L282.626,132.866 L281.696,135.315 L288.609,135.315 L288.609,155 L291.399,155 Z M304.282,155 L304.282,141.577 C304.282,139.221 304.189,136.865 304.065,135.594 L304.189,135.594 L311.474,155 L313.768,155 L321.146,135.625 L321.27,135.625 C321.177,136.958 321.053,139.252 321.053,141.391 L321.053,155 L323.812,155 L323.812,132.866 L319.72,132.866 L312.776,151.001 L312.652,151.001 L305.832,132.866 L301.709,132.866 L301.709,155 L304.282,155 Z M342.027,155 L342.957,152.551 L332.696,152.551 L332.696,144.646 L341.004,144.646 L341.004,142.228 L332.696,142.228 L332.696,135.315 L342.275,135.315 L342.275,132.866 L329.906,132.866 L329.906,155 L342.027,155 Z M349.795,155 L349.795,142.631 C349.795,140.368 349.64,138.074 349.547,136.617 L349.671,136.617 L361.513,155 L364.768,155 L364.768,132.866 L362.164,132.866 L362.164,145.359 C362.164,147.374 362.319,150.195 362.381,151.187 L362.257,151.187 L350.446,132.866 L347.222,132.866 L347.222,155 L349.795,155 Z M377.868,155 L377.868,135.315 L384.75,135.315 L384.75,132.866 L369.095,132.866 L368.165,135.315 L375.078,135.315 L375.078,155 L377.868,155 Z" id="path-1"></path>
    </defs>
    <g id="adventist-education" stroke="none" stroke-width="1" fill="none" fill-rule="evenodd">
        <g id="Group-44" transform="translate(5.000000, 5.000000)">
            <g id="EDUCATIONDEPARTMENT" fill-rule="nonzero">
                <use fill="#4A4A4A" xlink:href="#path-1"></use>
                <use fill="#007F98" xlink:href="#path-1"></use>
            </g>
            <path d="M284.4707,12.5343 L290.9607,29.5993 C292.0797,32.6213 293.0317,35.3073 293.4787,37.7693 L293.7027,37.7693 C294.1507,35.9233 295.1577,32.6213 296.2767,29.5443 L302.3757,12.5343 L307.6917,12.5343 L294.7657,46.6663 C292.6397,52.3173 290.7377,54.3883 286.7647,55.9543 L285.2537,51.9813 C287.5477,50.9193 288.4437,49.8553 289.7297,46.6103 L291.2967,42.6383 L279.2107,12.5343 L284.4707,12.5343 Z M267.5727,28.0333 C260.0747,28.3133 257.6677,30.4393 257.6677,34.2443 C257.6677,37.6013 259.9067,39.1123 263.1517,39.1123 C268.1877,39.1123 271.9917,36.3703 271.9917,30.5513 L271.9917,27.8653 L267.5727,28.0333 Z M276.8607,22.1023 L276.8607,42.5253 L273.2797,42.5253 L272.3277,38.2723 L272.1047,38.2723 C269.4747,41.5743 267.0687,43.0853 262.0337,43.0853 C256.6057,43.0853 252.5757,40.2873 252.5757,34.1883 C252.5757,28.2013 257.1647,24.9563 266.9567,24.6203 L272.0487,24.4523 L272.0487,22.6623 C272.0487,17.6813 269.7537,16.0033 265.8377,16.0033 C262.7037,16.0033 259.8507,17.1223 257.3887,18.2973 L255.8777,14.6043 C258.5077,13.2053 262.1997,12.0303 266.1167,12.0303 C273.3917,12.0303 276.8607,15.1083 276.8607,22.1023 L276.8607,22.1023 Z M243.1757,28.5373 L243.1757,27.6413 C243.1757,20.2003 241.1617,16.0593 234.5027,16.0593 C229.1877,16.0593 226.5577,20.5923 226.5577,27.6973 C226.5577,34.8593 229.1877,39.0003 234.5597,39.0003 C240.8817,39.0003 243.1757,35.5313 243.1757,28.5373 L243.1757,28.5373 Z M221.4657,27.5863 C221.4657,17.2903 226.3897,11.9743 233.8317,11.9743 C238.4767,11.9743 241.2737,13.9323 243.1197,16.3943 L243.4557,16.3943 C243.3437,15.4433 243.1197,13.0943 243.1197,11.9743 L243.1197,1.9023 L248.0437,0.0003 L248.0437,42.5253 L244.0717,42.5253 L243.3437,38.4973 L243.1197,38.4973 C241.3297,41.0703 238.4767,43.0853 233.7767,43.0853 C226.3337,43.0853 221.4657,37.8813 221.4657,27.5863 L221.4657,27.5863 Z M202.2177,25.3473 L215.7587,25.3473 L217.4377,29.7123 L203.8967,29.7123 L202.2177,25.3473 Z M177.1507,12.4783 C177.1507,13.9323 177.0387,15.5003 176.8707,16.6753 L177.2057,16.6753 C179.1097,13.5973 182.6907,12.0303 186.5507,12.0303 C193.8247,12.0303 197.5177,15.3323 197.5177,22.9973 L197.5177,42.5253 L192.6497,42.5253 L192.6497,23.3333 C192.6497,18.5213 190.5237,16.1153 185.9357,16.1153 C179.2207,16.1153 177.1507,20.0323 177.1507,27.0263 L177.1507,42.5253 L172.2267,42.5253 L172.2267,1.8463 L177.1507,0.0003 L177.1507,12.4783 Z M165.9047,38.3293 L167.2467,41.8533 C166.1837,42.5253 164.0577,43.0853 161.7637,43.0853 C157.0637,43.0853 152.9787,41.0703 152.9787,33.7973 L152.9787,7.4983 L157.9027,5.6513 L157.9027,12.5343 L166.5747,12.5343 L166.5747,16.3393 L157.9027,16.3393 L157.9027,33.6843 C157.9027,37.3213 159.8607,39.0563 162.6027,39.0563 C163.7217,39.0563 165.2327,38.6653 165.9047,38.3293 L165.9047,38.3293 Z M145.8717,22.9973 L145.8717,42.5253 L141.0037,42.5253 L141.0037,23.3333 C141.0037,18.5213 138.8777,16.1153 134.2897,16.1153 C127.6307,16.1153 125.5047,19.9753 125.5047,26.9703 L125.5047,42.5253 L120.5807,42.5253 L120.5807,12.5343 L124.5537,12.5343 L125.2817,16.6193 L125.5607,16.6193 C127.5197,13.4853 131.2117,11.9743 135.0177,11.9743 C142.1797,11.9743 145.8717,15.2753 145.8717,22.9973 L145.8717,22.9973 Z M94.7857,24.5643 L110.0617,24.5643 C110.0057,19.4723 107.7677,16.0033 102.7877,16.0033 C98.0877,16.0033 95.2897,19.1923 94.7857,24.5643 L94.7857,24.5643 Z M115.2097,25.5153 L115.2097,28.4803 L94.6747,28.4803 C94.8417,35.2513 98.2557,38.8883 104.2417,38.8883 C107.1527,38.8883 110.1177,38.3293 112.4677,37.4333 L113.8667,41.1273 C110.7887,42.4703 108.1037,43.0853 104.0187,43.0853 C95.4577,43.0853 89.5827,37.7693 89.5827,27.7543 C89.5827,17.9053 94.8987,11.9743 102.8437,11.9743 C110.5097,11.9743 115.2097,17.3463 115.2097,25.5153 L115.2097,25.5153 Z M59.4797,12.5343 L64.7397,12.5343 L71.1177,30.2163 C72.0127,32.6783 73.1887,36.3143 73.5237,38.1613 L73.7477,38.1613 C74.1397,36.3143 75.4257,32.6213 76.2657,30.2163 L82.6447,12.5343 L87.9047,12.5343 L76.4897,42.5253 L70.8377,42.5253 L59.4797,12.5343 Z M37.3217,24.5643 L52.5967,24.5643 C52.5407,19.4723 50.3027,16.0033 45.3237,16.0033 C40.6227,16.0033 37.8247,19.1923 37.3217,24.5643 L37.3217,24.5643 Z M57.7447,25.5153 L57.7447,28.4803 L37.2097,28.4803 C37.3777,35.2513 40.7907,38.8883 46.7777,38.8883 C49.6877,38.8883 52.6537,38.3293 55.0027,37.4333 L56.4027,41.1273 C53.3247,42.4703 50.6387,43.0853 46.5537,43.0853 C37.9927,43.0853 32.1177,37.7693 32.1177,27.7543 C32.1177,17.9053 37.4337,11.9743 45.3787,11.9743 C53.0447,11.9743 57.7447,17.3463 57.7447,25.5153 L57.7447,25.5153 Z M14.3807,43.0853 C9.9047,43.0853 5.9317,42.4133 3.4127,41.1823 L4.9807,37.0423 C6.7147,37.8253 10.3517,38.7213 14.6047,38.7213 C20.5347,38.7213 23.6137,36.2593 23.6137,32.2863 C23.6137,28.3693 21.4307,26.6903 14.2127,24.0603 C7.3857,21.5983 3.9167,18.4093 3.9167,12.1983 C3.9167,5.8763 9.1207,2.0143 16.6747,2.0143 C21.0387,2.0143 24.6757,2.9103 27.6977,4.2533 L26.0747,8.5613 C23.2777,7.3873 20.0327,6.4353 16.5627,6.4353 C11.5827,6.4353 9.0087,8.7853 9.0087,12.2543 C9.0087,16.2833 11.2467,17.9053 17.7377,20.3113 C24.7877,22.9413 28.6487,25.5713 28.6487,31.8383 C28.6487,38.9443 23.1097,43.0853 14.3807,43.0853 L14.3807,43.0853 Z" id="Fill-38" fill="#007F98"></path>
            <path d="M238.5322,64.1408 L238.5322,62.7428 L239.0362,62.7428 C239.5942,62.7428 239.8752,62.9658 239.8752,63.4128 C239.8752,63.8618 239.5392,64.1408 239.0362,64.1408 L238.5322,64.1408 Z M237.7492,66.4918 L238.5322,66.4918 L238.5322,64.7568 L239.1472,64.7568 L240.1542,66.4918 L241.0502,66.4918 L239.8752,64.5328 C240.2662,64.3658 240.6582,64.0298 240.6582,63.4128 C240.6582,62.5188 240.1542,62.0708 239.0362,62.0708 L237.7492,62.0708 L237.7492,66.4918 Z M239.1472,67.4428 C237.3012,67.4428 236.0132,66.0428 236.0132,64.3088 C236.0132,62.4618 237.3012,61.1198 239.1472,61.1198 C240.9942,61.1198 242.2812,62.5748 242.2812,64.3088 C242.2812,66.1558 240.8822,67.4428 239.1472,67.4428 L239.1472,67.4428 Z M239.1472,68.0018 C241.2732,68.0018 242.8412,66.4358 242.8412,64.3088 C242.8412,62.1268 241.2182,60.5598 239.1472,60.5598 C236.9662,60.5598 235.4552,62.1268 235.4552,64.3088 C235.4552,66.4358 236.9662,68.0018 239.1472,68.0018 L239.1472,68.0018 Z M229.1872,99.0568 C226.4462,99.0568 224.4872,97.3218 224.4872,93.6848 L224.4872,76.3388 L233.1602,76.3388 L233.1602,72.5348 L224.4872,72.5348 L224.4872,65.6518 L219.5632,67.4978 L219.5632,93.7968 C219.5632,101.0708 223.6482,103.0848 228.3482,103.0848 C230.6422,103.0848 232.7682,102.5258 233.8322,101.8538 L232.4892,98.3288 C231.8172,98.6648 230.3062,99.0568 229.1872,99.0568 L229.1872,99.0568 Z M213.5202,94.2448 C213.5202,89.4328 210.2202,87.4738 204.5112,85.3478 C198.7492,83.1648 196.7902,82.1588 196.7902,79.6408 C196.7902,77.4028 198.9722,76.0028 203.0012,76.0028 C205.9112,76.0028 208.8202,76.8428 211.3942,77.9618 L212.9052,73.9898 C210.1072,72.7578 206.9732,71.9748 203.3372,71.9748 C196.6222,71.9748 192.0902,74.8288 192.0902,79.9198 C192.0902,84.8438 195.5592,86.6348 201.3792,88.8728 C207.2542,91.1108 208.7642,92.4538 208.7642,94.6918 C208.7642,97.3778 206.6382,99.1128 201.6582,99.1128 C198.8042,99.1128 195.5592,98.2168 193.6002,97.3778 L192.1462,101.1828 C194.4402,102.4128 197.3492,103.0848 201.5472,103.0848 C208.8772,103.0848 213.5202,100.0638 213.5202,94.2448 L213.5202,94.2448 Z M180.6752,102.5258 L185.5992,102.5258 L185.5992,72.5348 L180.6752,72.5348 L180.6752,102.5258 Z M186.0472,64.4208 C186.0472,66.5468 184.7042,67.5538 183.1932,67.5538 C181.5712,67.5538 180.2842,66.5468 180.2842,64.4208 C180.2842,62.2388 181.5712,61.2868 183.1932,61.2868 C184.7042,61.2868 186.0472,62.2388 186.0472,64.4208 L186.0472,64.4208 Z M173.7932,98.3288 L175.1362,101.8538 C174.0732,102.5258 171.9472,103.0848 169.6522,103.0848 C164.9522,103.0848 160.8682,101.0708 160.8682,93.7968 L160.8682,67.4978 L165.7922,65.6518 L165.7922,72.5348 L174.4652,72.5348 L174.4652,76.3388 L165.7922,76.3388 L165.7922,93.6848 C165.7922,97.3218 167.7502,99.0568 170.4922,99.0568 C171.6112,99.0568 173.1222,98.6648 173.7932,98.3288 L173.7932,98.3288 Z M153.7612,82.9968 L153.7612,102.5258 L148.8932,102.5258 L148.8932,83.3328 C148.8932,78.5218 146.7672,76.1158 142.1792,76.1158 C135.5202,76.1158 133.3942,79.9758 133.3942,86.9698 L133.3942,102.5258 L128.4702,102.5258 L128.4702,72.5348 L132.4432,72.5348 L133.1712,76.6198 L133.4502,76.6198 C135.4092,73.4858 139.1012,71.9748 142.9062,71.9748 C150.0682,71.9748 153.7612,75.2758 153.7612,82.9968 L153.7612,82.9968 Z M102.6762,84.5648 L117.9512,84.5648 C117.8952,79.4728 115.6572,76.0028 110.6772,76.0028 C105.9772,76.0028 103.1792,79.1928 102.6762,84.5648 L102.6762,84.5648 Z M123.0982,85.5158 L123.0982,88.4808 L102.5632,88.4808 C102.7312,95.2508 106.1442,98.8888 112.1322,98.8888 C115.0422,98.8888 118.0072,98.3288 120.3572,97.4338 L121.7562,101.1268 C118.6782,102.4698 115.9932,103.0848 111.9082,103.0848 C103.3472,103.0848 97.4712,97.7698 97.4712,87.7538 C97.4712,77.9058 102.7882,71.9748 110.7332,71.9748 C118.3982,71.9748 123.0982,77.3458 123.0982,85.5158 L123.0982,85.5158 Z M67.3692,72.5348 L72.6292,72.5348 L79.0072,90.2158 C79.9022,92.6778 81.0772,96.3148 81.4132,98.1618 L81.6362,98.1618 C82.0282,96.3148 83.3152,92.6208 84.1552,90.2158 L90.5342,72.5348 L95.7942,72.5348 L84.3792,102.5258 L78.7272,102.5258 L67.3692,72.5348 Z M58.3042,88.5368 L58.3042,87.6418 C58.3042,80.2008 56.2902,76.0598 49.6322,76.0598 C44.3152,76.0598 41.6852,80.5918 41.6852,87.6978 C41.6852,94.8598 44.3152,98.9998 49.6872,98.9998 C56.0102,98.9998 58.3042,95.5318 58.3042,88.5368 L58.3042,88.5368 Z M36.5942,87.5858 C36.5942,77.2898 41.5182,71.9748 48.9602,71.9748 C53.6042,71.9748 56.4022,73.9328 58.2482,76.3948 L58.5842,76.3948 C58.4722,75.4438 58.2482,73.0938 58.2482,71.9748 L58.2482,61.9028 L63.1722,59.9998 L63.1722,102.5258 L59.1992,102.5258 L58.4722,98.4968 L58.2482,98.4968 C56.4582,101.0708 53.6042,103.0848 48.9042,103.0848 C41.4622,103.0848 36.5942,97.8808 36.5942,87.5858 L36.5942,87.5858 Z M19.6962,73.5978 C19.3602,72.7028 18.1852,69.0088 17.7942,67.6108 C17.2342,69.9048 16.5072,72.3108 16.0582,73.5978 L11.5262,85.6838 L24.1732,85.6838 L19.6962,73.5978 Z M25.6832,90.1598 L9.8482,90.1598 L5.0922,102.5258 L0.0002,102.5258 L15.6112,62.4068 L20.1432,62.4068 L35.6992,102.5258 L30.4952,102.5258 L25.6832,90.1598 Z" id="Fill-40" fill="#007F98"></path>
            <path d="M402.4023,72.4787 C402.4023,73.9327 402.2913,75.4997 402.1233,76.6747 L402.4593,76.6747 C404.3613,73.5977 407.9423,72.0307 411.8023,72.0307 C419.0773,72.0307 422.7693,75.3327 422.7693,82.9977 L422.7693,102.5257 L417.9013,102.5257 L417.9013,83.3327 C417.9013,78.5217 415.7753,76.1157 411.1873,76.1157 C404.4723,76.1157 402.4023,80.0327 402.4023,87.0267 L402.4023,102.5257 L397.4783,102.5257 L397.4783,61.8467 L402.4023,59.9997 L402.4023,72.4787 Z M370.2853,87.6977 C370.2853,76.6197 376.2723,71.9747 384.3293,71.9747 C387.3503,71.9747 390.4843,72.7027 392.2753,73.5977 L390.7083,77.6817 C388.9183,77.0107 386.2883,76.2837 384.2173,76.2837 C378.2303,76.2837 375.3773,80.1437 375.3773,87.6417 C375.3773,94.8597 378.2863,98.8327 383.9373,98.8327 C386.4563,98.8327 388.6373,98.2727 390.5963,97.3777 L392.1073,101.2937 C390.4283,102.3577 387.4073,103.0847 383.9943,103.0847 C375.9923,103.0847 370.2853,98.3297 370.2853,87.6977 L370.2853,87.6977 Z M369.3893,72.3107 L368.7743,76.8427 C367.8233,76.6197 366.5363,76.4517 365.5293,76.4517 C360.8843,76.4517 356.7993,80.4797 356.7993,86.5227 L356.7993,102.5257 L351.8763,102.5257 L351.8763,72.5347 L355.9053,72.5347 L356.4643,78.0177 L356.6883,78.0177 C358.5903,74.7157 361.6683,71.9747 365.8643,71.9747 C366.9833,71.9747 368.3823,72.0857 369.3893,72.3107 L369.3893,72.3107 Z M344.2103,102.5257 L340.1813,102.5257 L339.4543,98.5527 L339.2303,98.5527 C337.2723,101.6867 333.5793,103.0847 329.7183,103.0847 C322.5003,103.0847 318.8073,99.7837 318.8073,92.1737 L318.8073,72.5347 L323.7873,72.5347 L323.7873,91.8377 C323.7873,96.6507 325.9133,98.9997 330.4453,98.9997 C337.1043,98.9997 339.2863,95.1397 339.2863,88.1457 L339.2863,72.5347 L344.2103,72.5347 L344.2103,102.5257 Z M291.7813,72.4787 C291.7813,73.9327 291.6703,75.4997 291.5023,76.6747 L291.8383,76.6747 C293.7403,73.5977 297.3213,72.0307 301.1813,72.0307 C308.4563,72.0307 312.1483,75.3327 312.1483,82.9977 L312.1483,102.5257 L307.2813,102.5257 L307.2813,83.3327 C307.2813,78.5217 305.1543,76.1157 300.5663,76.1157 C293.8513,76.1157 291.7813,80.0327 291.7813,87.0267 L291.7813,102.5257 L286.8573,102.5257 L286.8573,61.8467 L291.7813,59.9997 L291.7813,72.4787 Z M256.5873,82.5497 C256.5873,92.4547 261.1743,98.6657 270.3513,98.6657 C273.8203,98.6657 278.0733,97.8807 280.6463,96.6507 L282.1013,100.5107 C277.6253,102.5817 274.6593,103.0847 269.6243,103.0847 C257.3703,103.0847 251.2703,95.0837 251.2703,82.4947 C251.2703,70.4087 258.0973,62.0147 270.4633,62.0147 C274.5483,62.0147 278.1293,62.6867 281.1503,64.1977 L279.4713,68.6177 C277.0093,67.4987 273.9883,66.4357 270.4073,66.4357 C261.8453,66.4357 256.5873,72.5347 256.5873,82.5497 L256.5873,82.5497 Z" id="Fill-42" fill="#007F98"></path>
        </g>
    </g>
</svg>