<?xml version="1.0" encoding="utf-8"?>
<!-- Generator: Adobe Illustrator 24.2.0, SVG Export Plug-In . SVG Version: 6.00 Build 0)  -->
<svg version="1.1" id="Layer_1" xmlns="http://www.w3.org/2000/svg" xmlns:xlink="http://www.w3.org/1999/xlink" x="0px" y="0px"
	 viewBox="0 0 190 46.9" style="enable-background:new 0 0 190 46.9;" xml:space="preserve">
<style type="text/css">
	.st0{fill:#2E6DE7;}
</style>
<g>
	<g>
		<g>
			<path class="st0" d="M45.07,37.11c0-0.69,0.5-1.19,1.19-1.19c0.66,0,1.19,0.5,1.19,1.19s-0.5,1.19-1.19,1.19
				S45.07,37.8,45.07,37.11z M47.26,37.11c0-0.56-0.42-1.02-1-1.02s-1.01,0.42-1.01,1.02c0,0.56,0.42,1.02,1.01,1.02
				C46.81,38.13,47.26,37.7,47.26,37.11 M45.81,36.41h0.41c0.35,0,0.51,0.14,0.51,0.42c0,0.2-0.12,0.32-0.25,0.37l0.38,0.63h-0.28
				l-0.32-0.56h-0.2v0.56h-0.25V36.41z M46.22,37.06c0.17,0,0.27-0.09,0.27-0.23c0-0.15-0.08-0.22-0.27-0.22h-0.16v0.45H46.22z
				 M28.22,24.64c-1.92,1.92-2.85,2.83-3.33,5.15c-0.04,0.17-0.23,0.17-0.23,0v-2.85c0-1.83,1.63-3.5,3.57-5.43l1.56-1.56
				c2.18-2.18,2.71-4.71,0.97-6.22c-0.14-0.13-0.07-0.28,0.12-0.19c2.17,0.99,3.87,4.57,0.16,8.28L28.22,24.64z M24.65,31.96v2.87
				c0,0.17,0.2,0.17,0.23,0c0.48-2.33,1.41-3.26,3.32-5.18l3.04-3.03c3.71-3.71,4.35-7.31,2.47-9.61c-0.13-0.15-0.26-0.06-0.18,0.13
				c1.25,2.82-1.75,5.82-3.17,7.24l-2.15,2.15C26.28,28.46,24.65,30.13,24.65,31.96z M16.42,22.73c-3.71,3.71-2,7.3,0.16,8.28
				c0.19,0.09,0.27-0.07,0.12-0.19c-1.74-1.5-1.21-4.03,0.97-6.22l6.17-6.17c1.94-1.94,3.57-3.61,3.57-5.43v-2.85
				c0-0.17-0.2-0.17-0.23,0c-0.48,2.33-1.41,3.24-3.33,5.16L16.42,22.73z M27.42,7.98V5.11c0-0.17-0.2-0.17-0.24,0
				c-0.48,2.33-1.41,3.26-3.32,5.18l-7.65,7.64c-3.71,3.71-4.35,7.31-2.47,9.61c0.13,0.15,0.26,0.06,0.18-0.13
				c-1.25-2.82,1.75-5.82,3.17-7.24l6.76-6.76C25.79,11.48,27.42,9.81,27.42,7.98 M15.4,13.74c-3.19,3.19-3.64,6.57-2.96,8.77
				c0.06,0.19,0.22,0.2,0.22,0c-0.02-1.85,0.52-3.44,3.9-6.82l7.28-7.28c1.94-1.94,3.57-3.61,3.57-5.44V0.13c0-0.17-0.2-0.17-0.24,0
				c-0.48,2.33-1.41,3.24-3.33,5.16L15.4,13.74L15.4,13.74z M19.87,36.85c-0.07,0-0.12-0.05-0.12-0.12v-1.65
				c0-0.06,0.05-0.12,0.12-0.12l2.8,0c0.07,0,0.12-0.05,0.12-0.12c-0.01-1.49-1.13-2.49-5.61-1.71L7.48,34.8
				c0,0-7.38,7.38-7.44,7.45c-0.1,0.12-0.02,0.27,0.13,0.26c0.13-0.01,16.11-2.77,16.11-2.77c3.67-0.62,5.67,1.13,6.27,2.76
				c0.05,0.14,0.23,0.12,0.23-0.01v-5.51c0-0.06-0.05-0.12-0.12-0.12H19.87L19.87,36.85z M31.43,33.33l-3.2,3.2
				c-1.94,1.94-3.57,3.61-3.57,5.44l0,0.51c0,0.14,0.17,0.16,0.22,0.01c0.6-1.63,2.6-3.38,6.27-2.76c0,0,15.98,2.76,16.11,2.77
				c0.16,0.01,0.23-0.14,0.13-0.26c-0.06-0.07-7.44-7.45-7.44-7.45L31.43,33.33z M35.01,22.04c-0.06-0.19-0.22-0.2-0.22,0
				c0.01,1.85-0.52,3.44-3.9,6.82l-2.67,2.67c-1.22,1.22-2.31,2.33-2.96,3.44h2.64l0.31-0.31l3.83-3.84
				C35.25,27.62,35.69,24.24,35.01,22.04z M24.66,39.81c0,0.17,0.2,0.17,0.23,0c0.27-1.28,0.67-2.13,1.29-2.96l-1.41,0
				c-0.07,0-0.12,0.05-0.12,0.12V39.81z"/>
			<path class="st0" d="M63.48,14.09c-0.11-0.29-0.48-1.47-0.61-1.92c-0.18,0.74-0.41,1.51-0.56,1.92l-1.45,3.87h4.05L63.48,14.09z
				 M65.4,19.4h-5.08l-1.52,3.96h-1.63l5-12.86h1.45l4.99,12.86h-1.67L65.4,19.4z"/>
			<path class="st0" d="M76.4,18.88v-0.29c0-2.39-0.65-3.71-2.78-3.71c-1.7,0-2.55,1.45-2.55,3.73c0,2.3,0.84,3.62,2.56,3.62
				C75.66,22.23,76.4,21.12,76.4,18.88 M69.44,18.57c0-3.3,1.58-5,3.96-5c1.49,0,2.39,0.63,2.98,1.42h0.11
				c-0.04-0.31-0.11-1.06-0.11-1.42v-3.23l1.58-0.61v13.63h-1.27l-0.23-1.29h-0.07c-0.57,0.82-1.49,1.47-3,1.47
				C71,23.54,69.44,21.87,69.44,18.57"/>
			<path class="st0" d="M79.3,13.75h1.69l2.04,5.67c0.29,0.79,0.66,1.96,0.77,2.55h0.07c0.13-0.59,0.54-1.77,0.81-2.55l2.05-5.67
				h1.69l-3.66,9.61h-1.81L79.3,13.75z"/>
			<path class="st0" d="M90.71,17.6h4.9c-0.02-1.63-0.74-2.74-2.33-2.74C91.77,14.86,90.87,15.88,90.71,17.6 M97.25,17.91v0.95
				h-6.58c0.05,2.17,1.15,3.34,3.07,3.34c0.93,0,1.88-0.18,2.64-0.47l0.45,1.18c-0.99,0.43-1.85,0.63-3.16,0.63
				c-2.74,0-4.63-1.7-4.63-4.91c0-3.16,1.7-5.06,4.25-5.06C95.75,13.57,97.25,15.29,97.25,17.91"/>
			<path class="st0" d="M107.44,17.1v6.26h-1.56v-6.15c0-1.54-0.68-2.31-2.15-2.31c-2.13,0-2.82,1.24-2.82,3.48v4.99h-1.58v-9.61
				h1.27l0.23,1.31h0.09c0.63-1.01,1.81-1.49,3.03-1.49C106.26,13.57,107.44,14.63,107.44,17.1"/>
			<path class="st0" d="M113.86,22.01l0.43,1.13c-0.34,0.22-1.02,0.4-1.76,0.4c-1.51,0-2.82-0.65-2.82-2.98v-8.43l1.58-0.59v2.21
				h2.78v1.22h-2.78v5.56c0,1.17,0.63,1.72,1.51,1.72C113.16,22.25,113.65,22.12,113.86,22.01"/>
			<path class="st0" d="M117.29,23.36h-1.58v-9.61h1.58V23.36z M117.43,11.15c0,0.68-0.43,1-0.91,1c-0.52,0-0.93-0.32-0.93-1
				c0-0.7,0.41-1,0.93-1C117,10.14,117.43,10.45,117.43,11.15"/>
			<path class="st0" d="M122.4,23.54c-1.35,0-2.28-0.21-3.01-0.61l0.47-1.22c0.63,0.27,1.67,0.56,2.58,0.56
				c1.6,0,2.28-0.56,2.28-1.42c0-0.72-0.49-1.15-2.37-1.87c-1.86-0.72-2.98-1.29-2.98-2.87c0-1.63,1.45-2.55,3.6-2.55
				c1.17,0,2.17,0.25,3.07,0.65l-0.48,1.27c-0.82-0.36-1.76-0.63-2.69-0.63c-1.29,0-1.99,0.45-1.99,1.17c0,0.81,0.63,1.13,2.47,1.83
				c1.83,0.68,2.89,1.31,2.89,2.85C126.24,22.57,124.75,23.54,122.4,23.54"/>
			<path class="st0" d="M131.96,22.01l0.43,1.13c-0.34,0.22-1.02,0.4-1.76,0.4c-1.51,0-2.82-0.65-2.82-2.98v-8.43l1.58-0.59v2.21
				h2.78v1.22h-2.78v5.56c0,1.17,0.63,1.72,1.51,1.72C131.26,22.25,131.74,22.12,131.96,22.01"/>
			<path class="st0" d="M133.79,11.06c0.16,0,0.27-0.09,0.27-0.23c0-0.14-0.09-0.22-0.27-0.22h-0.16v0.45H133.79z M133.38,10.39
				h0.41c0.36,0,0.52,0.14,0.52,0.43c0,0.2-0.13,0.3-0.25,0.36l0.38,0.63h-0.29l-0.32-0.56h-0.2v0.56h-0.25V10.39z M134.83,11.11
				c0-0.56-0.41-1.02-1-1.02c-0.59,0-1,0.43-1,1.02c0,0.56,0.41,1,1,1C134.38,12.11,134.83,11.7,134.83,11.11 M132.64,11.11
				c0-0.7,0.49-1.2,1.18-1.2c0.66,0,1.18,0.5,1.18,1.2c0,0.68-0.5,1.18-1.18,1.18C133.12,12.29,132.64,11.79,132.64,11.11"/>
		</g>
		<polygon class="st0" points="57.19,42.59 57.19,29.79 64.35,29.79 64.35,31.2 58.81,31.2 58.81,35.74 63.61,35.74 63.61,37.16 
			58.81,37.16 58.81,42.59 		"/>
		<g>
			<path class="st0" d="M70.03,37.95c-2.4,0.09-3.17,0.77-3.17,1.99c0,1.08,0.72,1.56,1.76,1.56c1.61,0,2.83-0.88,2.83-2.74v-0.86
				L70.03,37.95z M73.01,36.04v6.55h-1.15l-0.3-1.36h-0.07c-0.84,1.06-1.61,1.54-3.23,1.54c-1.74,0-3.03-0.9-3.03-2.85
				c0-1.92,1.47-2.98,4.61-3.07l1.63-0.05v-0.57c0-1.6-0.74-2.14-1.99-2.14c-1,0-1.92,0.36-2.71,0.74l-0.49-1.18
				c0.84-0.45,2.03-0.82,3.28-0.82C71.9,32.82,73.01,33.8,73.01,36.04"/>
			<path class="st0" d="M89.42,36.33v6.26h-1.56V36.4c0-1.51-0.63-2.28-1.95-2.28c-1.87,0-2.6,1.11-2.6,3.16v5.31h-1.56V36.4
				c0-1.51-0.63-2.28-1.97-2.28c-1.94,0-2.56,1.24-2.56,3.48v4.99h-1.58v-9.61h1.27l0.23,1.31h0.09c0.59-1,1.69-1.49,2.83-1.49
				c1.47,0,2.47,0.52,2.94,1.61h0.09c0.65-1.09,1.83-1.61,3.08-1.61C88.34,32.8,89.42,33.86,89.42,36.33"/>
			<path class="st0" d="M93.62,42.59h-1.58v-9.61h1.58V42.59z M93.76,30.38c0,0.68-0.43,1-0.91,1c-0.52,0-0.93-0.32-0.93-1
				c0-0.7,0.41-1,0.93-1C93.33,29.37,93.76,29.68,93.76,30.38"/>
		</g>
		<polygon class="st0" points="96.31,42.59 96.31,29.57 97.89,28.96 97.89,42.59 		"/>
		<g>
			<path class="st0" d="M100.76,32.98l2.08,5.47c0.36,0.97,0.66,1.83,0.81,2.62h0.07c0.14-0.59,0.48-1.65,0.82-2.64l1.95-5.45h1.7
				l-4.14,10.94c-0.68,1.81-1.29,2.47-2.56,2.98l-0.48-1.27c0.74-0.34,1.04-0.68,1.44-1.72l0.5-1.27l-3.87-9.65H100.76z"/>
			<path class="st0" d="M115.32,31.36h-0.07c0.07,0.74,0.13,2.1,0.13,3.46v7.77h-1.49V29.79h2.39l3.95,10.49h0.07l4.02-10.49h2.37
				v12.81h-1.6v-7.87c0-1.24,0.07-2.56,0.13-3.34h-0.07l-4.27,11.21h-1.33L115.32,31.36z"/>
			<path class="st0" d="M131.15,42.59h-1.58v-9.61h1.58V42.59z M131.3,30.38c0,0.68-0.43,1-0.91,1c-0.52,0-0.93-0.32-0.93-1
				c0-0.7,0.41-1,0.93-1C130.87,29.37,131.3,29.68,131.3,30.38"/>
			<path class="st0" d="M141.95,36.33v6.26h-1.56v-6.15c0-1.54-0.68-2.31-2.15-2.31c-2.13,0-2.82,1.24-2.82,3.48v4.99h-1.58v-9.61
				h1.27l0.23,1.31h0.09c0.63-1,1.81-1.49,3.03-1.49C140.77,32.8,141.95,33.86,141.95,36.33"/>
			<path class="st0" d="M146.15,42.59h-1.58v-9.61h1.58V42.59z M146.29,30.38c0,0.68-0.43,1-0.91,1c-0.52,0-0.93-0.32-0.93-1
				c0-0.7,0.41-1,0.93-1C145.86,29.37,146.29,29.68,146.29,30.38"/>
			<path class="st0" d="M151.26,42.77c-1.35,0-2.28-0.21-3.01-0.61l0.47-1.22c0.63,0.27,1.67,0.56,2.58,0.56
				c1.6,0,2.28-0.56,2.28-1.42c0-0.72-0.49-1.15-2.37-1.87c-1.86-0.72-2.98-1.29-2.98-2.87c0-1.63,1.45-2.55,3.6-2.55
				c1.17,0,2.17,0.25,3.07,0.65l-0.48,1.27c-0.82-0.36-1.76-0.63-2.69-0.63c-1.29,0-1.99,0.45-1.99,1.17c0,0.81,0.63,1.13,2.47,1.83
				c1.83,0.68,2.89,1.31,2.89,2.85C155.1,41.8,153.61,42.77,151.26,42.77"/>
			<path class="st0" d="M160.82,41.25l0.43,1.13c-0.34,0.22-1.02,0.4-1.76,0.4c-1.51,0-2.82-0.65-2.82-2.98v-8.43l1.58-0.59v2.21
				h2.78v1.22h-2.78v5.56c0,1.17,0.63,1.72,1.51,1.72C160.12,41.48,160.61,41.35,160.82,41.25"/>
			<path class="st0" d="M168.28,32.91l-0.2,1.45c-0.3-0.07-0.72-0.13-1.04-0.13c-1.49,0-2.8,1.29-2.8,3.23v5.13h-1.58v-9.61h1.29
				l0.18,1.76h0.07c0.61-1.06,1.6-1.94,2.94-1.94C167.51,32.8,167.96,32.83,168.28,32.91"/>
			<path class="st0" d="M171.29,42.59h-1.58v-9.61h1.58V42.59z M171.44,30.38c0,0.68-0.43,1-0.91,1c-0.52,0-0.93-0.32-0.93-1
				c0-0.7,0.41-1,0.93-1C171.01,29.37,171.44,29.68,171.44,30.38"/>
			<path class="st0" d="M175.11,36.83h4.9c-0.02-1.63-0.74-2.75-2.33-2.75C176.17,34.09,175.28,35.11,175.11,36.83 M181.66,37.14
				v0.95h-6.58c0.05,2.17,1.15,3.34,3.07,3.34c0.93,0,1.88-0.18,2.64-0.47l0.45,1.18c-0.99,0.43-1.85,0.63-3.16,0.63
				c-2.74,0-4.63-1.7-4.63-4.91c0-3.16,1.7-5.06,4.25-5.06C180.15,32.8,181.66,34.52,181.66,37.14"/>
			<path class="st0" d="M186.16,42.77c-1.35,0-2.28-0.21-3.01-0.61l0.47-1.22c0.63,0.27,1.67,0.56,2.58,0.56
				c1.6,0,2.28-0.56,2.28-1.42c0-0.72-0.49-1.15-2.37-1.87c-1.86-0.72-2.98-1.29-2.98-2.87c0-1.63,1.45-2.55,3.6-2.55
				c1.17,0,2.17,0.25,3.07,0.65l-0.48,1.27c-0.82-0.36-1.76-0.63-2.69-0.63c-1.29,0-1.99,0.45-1.99,1.17c0,0.81,0.63,1.13,2.47,1.83
				c1.83,0.68,2.89,1.31,2.89,2.85C190,41.8,188.51,42.77,186.16,42.77"/>
		</g>
	</g>
</g>
</svg>
