<svg id="Layer_1" data-name="Layer 1" xmlns="http://www.w3.org/2000/svg" viewBox="0 0 276.06 234.5"><defs><style>.cls-1{fill:#fff;}.cls-2{fill:#4cb0e3;}</style></defs><title>logo-sspm-square</title><path class="cls-1" d="M64.48,167.52l-0.54-125S80,41.13,88.64,41.13a170.77,170.77,0,0,1,33,3.25,100.74,100.74,0,0,1,22.65,8.29l0.11,14.14a62.79,62.79,0,0,1,20.37,1c10.94,2.38,16.36,7.31,17.77,8.4s6.5,5.91,6.5,5.91,5.69,0.49,8.67,1,8.18,2.44,7.91,5.15-3.25,3.9-4.61,4.23a37.62,37.62,0,0,1-4.61.49s1.25,3,1.73,4.6,1.41,4.39,1.41,4.39,4.39,1,4.39,2.87-3.25,4-3.25,4,2.22,17.39-8.34,31.74-22.91,17.2-28.17,18.58c-6.28,1.65-19.4,1-19.4,1v26.6H129.48s2.06,8.7,15.87,8.67c12.64,0,14.14-8.07,14.14-8.07s21.94-4.82,32.56-5.58,19.47-1.13,28.88-.1,21.88,5.13,21.88,5.13V26.34s-31.59.42-48.42,2.5c-30.82,3.81-50,16.13-50,16.13a121.11,121.11,0,0,0-42.58-15.33c-22.4-3.59-56.67-3.25-56.67-3.25V187a117.58,117.58,0,0,1,34.13-5.42,152.44,152.44,0,0,1,31.42,3.25c2.44,0.43,10.28,3.23,10.84,1.68,0.7-2-14.81-10-27.09-14.19C81.65,168,64.48,167.52,64.48,167.52Z" transform="translate(-6.6 -26.34)"/><path class="cls-2" d="M177,81.17A44.75,44.75,0,0,0,145.7,68.69a45.69,45.69,0,0,0-33.41,15,88.37,88.37,0,0,0-16.6,6.89C87.6,95.11,82.16,100,80.17,103.11s-2.18,4.58-1.68,4.77,5.34-5.47,12.42-9.48,9.42-5.41,17.61-8.06a157.94,157.94,0,0,1,25.62-6.22c8.8-1.29,20.56-2.15,25.3-2.4S177,81.17,177,81.17Z" transform="translate(-6.6 -26.34)"/><path class="cls-2" d="M188.6,99.93s-1.24-3.53-2-5.12a26.13,26.13,0,0,0-2.52-4.29A100.69,100.69,0,0,0,160.71,88,228.63,228.63,0,0,0,127.37,91c-5.76,1-20.9,4.34-23.33,7.29s-2.55,8.71-2.55,8.71a66.24,66.24,0,0,0-9.42,6.09c-4.06,3.29-7.54,8.28-6.49,9.2s4.46-5.42,15.24-10,14.28-6.53,28.63-9.63a179,179,0,0,1,39.27-4.12A118.54,118.54,0,0,1,188.6,99.93Z" transform="translate(-6.6 -26.34)"/><path class="cls-2" d="M190.35,109.63A90.5,90.5,0,0,0,161,105.35c-16,.46-24.35,1.79-32.47,3.55s-26.76,6.77-26.92,10.05a14.12,14.12,0,0,0,1.39,6.32,43.49,43.49,0,0,0-5,4.47c-1.15,1.48-3.69,5.22-2.5,6,0.74,0.45,1.88-1.68,4.72-3.86,3.86-3,17.15-9.27,28.19-11.41s16.87-3.65,27.91-4.19,24.7,0.41,25.94,2.5-2,6.57-8.78,6.57c-5,0-7-1.94-22.65-1.89-13,0-23,2.91-27.87,4.1s-16.46,5-15.92,7.55,3.69,5.58,3.69,5.58A33.25,33.25,0,0,0,108,143.5c-0.86,1.11-2.42,3.32-1.48,3.9s1.64-2.22,9.44-5.5a112.13,112.13,0,0,1,22.57-7c7.06-1.31,23.5-3.72,22.94,1.48s-8.78,4.35-14.16,4.1a70.76,70.76,0,0,0-16.66,1.64c-5.29,1.07-13.38,3.9-13.83,4.6s11.49,11.2,29.06,11.2a43.71,43.71,0,0,0,31.89-13.26A49,49,0,0,0,188.27,128,44.64,44.64,0,0,0,190.35,109.63Z" transform="translate(-6.6 -26.34)"/><path class="cls-1" d="M33,211.87L31,216a15.58,15.58,0,0,0-6.7-2.18c-1.37,0-2.3.51-2.3,1.53,0,3.62,11.06,1.55,11.06,9.12,0,4.19-3.71,6.4-8.37,6.4a15.6,15.6,0,0,1-9.57-3.35l2.06-4.1a13,13,0,0,0,7.56,3.14c1.67,0,2.72-.63,2.72-1.82,0-3.71-11.06-1.49-11.06-8.91,0-3.86,3.32-6.31,8.34-6.31A15.71,15.71,0,0,1,33,211.87Z" transform="translate(-6.6 -26.34)"/><path class="cls-1" d="M49.6,220.18v10.52H44.54v-1.85a5.9,5.9,0,0,1-4.93,2.09c-3.44,0-5.53-2.09-5.53-5.05s2.18-4.84,6.19-4.87h4.25v-0.24c0-1.58-1-2.54-3.14-2.54a11.33,11.33,0,0,0-4.81,1.34l-1.46-3.41a17,17,0,0,1,7.47-1.82C47,214.35,49.57,216.54,49.6,220.18Zm-5.08,5.05V223.8H41.25c-1.55,0-2.33.54-2.33,1.73s0.84,1.91,2.27,1.91A3.26,3.26,0,0,0,44.51,225.24Z" transform="translate(-6.6 -26.34)"/><path class="cls-1" d="M70.37,222.73c0,4.9-2.93,8.16-7.44,8.16A6,6,0,0,1,58,228.56v2.15H52.82V208.52H58v8.19a5.87,5.87,0,0,1,4.81-2.3C67.36,214.41,70.37,217.73,70.37,222.73Zm-5.2-.15c0-2.45-1.47-4.18-3.62-4.18S58,220.12,58,222.57s1.46,4.22,3.56,4.22S65.17,225.06,65.17,222.57Z" transform="translate(-6.6 -26.34)"/><path class="cls-1" d="M90.26,222.73c0,4.9-2.93,8.16-7.44,8.16a6,6,0,0,1-4.93-2.33v2.15H72.71V208.52h5.17v8.19a5.87,5.87,0,0,1,4.81-2.3C87.24,214.41,90.26,217.73,90.26,222.73Zm-5.2-.15c0-2.45-1.47-4.18-3.62-4.18s-3.56,1.73-3.56,4.18,1.47,4.22,3.56,4.22S85.06,225.06,85.06,222.57Z" transform="translate(-6.6 -26.34)"/><path class="cls-1" d="M106.71,220.18v10.52h-5.05v-1.85a5.9,5.9,0,0,1-4.93,2.09c-3.44,0-5.53-2.09-5.53-5.05s2.18-4.84,6.19-4.87h4.25v-0.24c0-1.58-1-2.54-3.14-2.54a11.33,11.33,0,0,0-4.81,1.34l-1.46-3.41a17,17,0,0,1,7.47-1.82C104.1,214.35,106.68,216.54,106.71,220.18Zm-5.08,5.05V223.8H98.36c-1.55,0-2.33.54-2.33,1.73s0.84,1.91,2.27,1.91A3.26,3.26,0,0,0,101.62,225.24Z" transform="translate(-6.6 -26.34)"/><path class="cls-1" d="M120.19,229.84a8.76,8.76,0,0,1-4.31,1.11c-3.11,0-5.35-1.76-5.35-5.11v-7.12h-2.24v-3.38h2.24v-4.48h5.14v4.46h4.22v3.41h-4.22V225c0,1.26.54,1.79,1.5,1.76a5.57,5.57,0,0,0,2-.54Z" transform="translate(-6.6 -26.34)"/><path class="cls-1" d="M138.82,220.54v10.16h-5.17V222a2.73,2.73,0,0,0-2.84-3c-2,0-3.29,1.61-3.29,3.83v8h-5.17V208.52h5.17v8.73a6,6,0,0,1,5.41-2.9C136.48,214.35,138.82,216.78,138.82,220.54Z" transform="translate(-6.6 -26.34)"/><path class="cls-1" d="M164.53,211.87l-2,4.16a15.59,15.59,0,0,0-6.7-2.18c-1.38,0-2.3.51-2.3,1.53,0,3.62,11.06,1.55,11.06,9.12,0,4.19-3.71,6.4-8.37,6.4a15.6,15.6,0,0,1-9.57-3.35l2.06-4.1a13,13,0,0,0,7.56,3.14c1.67,0,2.72-.63,2.72-1.82,0-3.71-11.06-1.49-11.06-8.91,0-3.86,3.32-6.31,8.34-6.31A15.71,15.71,0,0,1,164.53,211.87Z" transform="translate(-6.6 -26.34)"/><path class="cls-1" d="M181.07,218l-3.71,2.24a3.87,3.87,0,0,0-3.26-1.67c-2,0-3.38,1.65-3.38,4.07s1.38,4.09,3.38,4.09a3.53,3.53,0,0,0,3.29-1.82l3.77,2.21c-1.32,2.36-3.92,3.74-7.32,3.74-5,0-8.31-3.29-8.31-8.19s3.38-8.28,8.37-8.28A8,8,0,0,1,181.07,218Z" transform="translate(-6.6 -26.34)"/><path class="cls-1" d="M199.69,220.54v10.16h-5.17V222a2.73,2.73,0,0,0-2.84-3c-2,0-3.29,1.61-3.29,3.83v8h-5.17V208.52h5.17v8.73a6,6,0,0,1,5.41-2.9C197.36,214.35,199.69,216.78,199.69,220.54Z" transform="translate(-6.6 -26.34)"/><path class="cls-1" d="M219,222.63c0,5-3.53,8.25-8.79,8.25s-8.82-3.29-8.82-8.25,3.53-8.22,8.82-8.22S219,217.67,219,222.63Zm-12.41.06c0,2.51,1.47,4.19,3.62,4.19s3.59-1.67,3.59-4.19-1.47-4.19-3.59-4.19S206.6,220.21,206.6,222.69Z" transform="translate(-6.6 -26.34)"/><path class="cls-1" d="M237.46,222.63c0,5-3.53,8.25-8.79,8.25s-8.82-3.29-8.82-8.25,3.53-8.22,8.82-8.22S237.46,217.67,237.46,222.63Zm-12.41.06c0,2.51,1.47,4.19,3.62,4.19s3.59-1.67,3.59-4.19-1.47-4.19-3.59-4.19S225.05,220.21,225.05,222.69Z" transform="translate(-6.6 -26.34)"/><path class="cls-1" d="M239.79,230.71V208.52H245v22.18h-5.17Z" transform="translate(-6.6 -26.34)"/><path class="cls-1" d="M267.63,228.73a9.28,9.28,0,0,1-5.95,2.21c-4.1,0-7.12-2.54-7.12-6.1,0-2.81,1.94-4.36,4.16-5.59a7.94,7.94,0,0,1-1.76-4.69c0-3.05,2.33-5,6-5s6,1.94,6,4.69c0,2.93-2.42,4.46-4.93,5.74,0.9,1,2,2.12,3.32,3.44a15.35,15.35,0,0,0,1.41-3.35L272,222.4a16.62,16.62,0,0,1-1.91,3.71l3.11,3-2.6,2.54ZM265,226.16c-1.73-1.73-3.17-3.17-4.28-4.42-1.14.75-1.94,1.59-1.94,2.75a2.87,2.87,0,0,0,3.11,2.84A5.09,5.09,0,0,0,265,226.16Zm-2.93-8.64c1.59-.87,2.81-1.82,2.81-3.26a1.76,1.76,0,0,0-1.88-1.82,2,2,0,0,0-2,2.12A5.46,5.46,0,0,0,262.07,217.52Z" transform="translate(-6.6 -26.34)"/><path class="cls-1" d="M15.72,239.68c5.35,0,8.43,2.63,8.43,7.29,0,4.9-3.08,7.74-8.43,7.74h-3.8v5.89H6.6V239.68h9.12Zm-3.8,10.85h3.53c2.33,0,3.68-1.17,3.68-3.38s-1.34-3.29-3.68-3.29H11.92v6.67Z" transform="translate(-6.6 -26.34)"/><path class="cls-1" d="M41.49,253.94H30.16a3.73,3.73,0,0,0,3.8,3,5.45,5.45,0,0,0,3.86-1.64l2.72,2.66a9.26,9.26,0,0,1-7,2.84c-5.26,0-8.55-3.29-8.55-8.19s3.41-8.28,8.4-8.28C39,244.31,41.85,248.05,41.49,253.94Zm-5-2.78a3,3,0,0,0-3.11-3.26c-1.79,0-3,1.32-3.35,3.26h6.46Z" transform="translate(-6.6 -26.34)"/><path class="cls-1" d="M48.88,247.21a5.88,5.88,0,0,1,5.23-3v4.66c-3-.27-5,1.14-5.23,3.41v8.28H43.71V244.49h5.17v2.72Z" transform="translate(-6.6 -26.34)"/><path class="cls-1" d="M68.28,246.08l-1.76,3.35a11.59,11.59,0,0,0-5.08-1.61c-0.93,0-1.58.36-1.58,1.11,0,2.21,8.49,1.14,8.46,6.76,0,3.32-2.9,5.14-6.79,5.14a11.92,11.92,0,0,1-7.24-2.27l1.64-3.29a10.33,10.33,0,0,0,5.71,2c1,0,1.76-.36,1.76-1.11,0-2.36-8.34-1.14-8.31-6.79,0-3.32,2.81-5.11,6.55-5.11A13.18,13.18,0,0,1,68.28,246.08Z" transform="translate(-6.6 -26.34)"/><path class="cls-1" d="M86.88,252.53c0,5-3.53,8.25-8.79,8.25s-8.82-3.29-8.82-8.25,3.53-8.22,8.82-8.22S86.88,247.57,86.88,252.53Zm-12.41.06c0,2.51,1.47,4.19,3.62,4.19s3.59-1.67,3.59-4.19-1.47-4.19-3.59-4.19S74.47,250.11,74.47,252.6Z" transform="translate(-6.6 -26.34)"/><path class="cls-1" d="M105.51,250.44v10.16h-5.14v-8.73a2.74,2.74,0,0,0-2.84-3,3.29,3.29,0,0,0-3.29,3.26v8.52H89.07V244.49h5.17v2.63a6,6,0,0,1,5.38-2.87C103.18,244.25,105.51,246.68,105.51,250.44Z" transform="translate(-6.6 -26.34)"/><path class="cls-1" d="M122.85,250.08v10.52H117.8v-1.85a5.9,5.9,0,0,1-4.93,2.09c-3.44,0-5.53-2.09-5.53-5.05s2.18-4.84,6.19-4.87h4.25v-0.24c0-1.58-1-2.54-3.14-2.54a11.33,11.33,0,0,0-4.81,1.34l-1.46-3.41a17,17,0,0,1,7.47-1.82C120.25,244.25,122.82,246.44,122.85,250.08Zm-5.08,5.05V253.7h-3.26c-1.55,0-2.33.54-2.33,1.73s0.84,1.91,2.27,1.91A3.26,3.26,0,0,0,117.77,255.14Z" transform="translate(-6.6 -26.34)"/><path class="cls-1" d="M126.08,260.61V238.42h5.17v22.18h-5.17Z" transform="translate(-6.6 -26.34)"/><path class="cls-1" d="M159.6,260.61l0-13.6-5,11.51h-3.47l-5-11.51v13.6H141.3v-21h5.83l5.68,12.47,5.68-12.47h5.8v21H159.6Z" transform="translate(-6.6 -26.34)"/><path class="cls-1" d="M173.2,239.86a2.72,2.72,0,1,1-2.72-2.72A2.63,2.63,0,0,1,173.2,239.86Zm-5.32,20.75V244.49H173v16.11h-5.14Z" transform="translate(-6.6 -26.34)"/><path class="cls-1" d="M193,250.44v10.16h-5.14v-8.73a2.74,2.74,0,0,0-2.84-3,3.29,3.29,0,0,0-3.29,3.26v8.52h-5.17V244.49h5.17v2.63a6,6,0,0,1,5.38-2.87C190.7,244.25,193,246.68,193,250.44Z" transform="translate(-6.6 -26.34)"/><path class="cls-1" d="M201.43,239.86a2.72,2.72,0,1,1-2.72-2.72A2.63,2.63,0,0,1,201.43,239.86Zm-5.32,20.75V244.49h5.14v16.11h-5.14Z" transform="translate(-6.6 -26.34)"/><path class="cls-1" d="M217.22,246.08l-1.76,3.35a11.6,11.6,0,0,0-5.08-1.61c-0.93,0-1.59.36-1.59,1.11,0,2.21,8.49,1.14,8.46,6.76,0,3.32-2.9,5.14-6.79,5.14a11.93,11.93,0,0,1-7.24-2.27l1.65-3.29a10.34,10.34,0,0,0,5.71,2c1,0,1.76-.36,1.76-1.11,0-2.36-8.34-1.14-8.31-6.79,0-3.32,2.81-5.11,6.55-5.11A13.18,13.18,0,0,1,217.22,246.08Z" transform="translate(-6.6 -26.34)"/><path class="cls-1" d="M230,259.74a8.75,8.75,0,0,1-4.3,1.11c-3.11,0-5.35-1.76-5.35-5.11v-7.12h-2.24v-3.38h2.24v-4.48h5.14v4.46h4.22v3.41h-4.22v6.31c0,1.26.54,1.79,1.49,1.76a5.58,5.58,0,0,0,2-.54Z" transform="translate(-6.6 -26.34)"/><path class="cls-1" d="M237.13,247.21a5.88,5.88,0,0,1,5.23-3v4.66c-3-.27-5,1.14-5.23,3.41v8.28H232V244.49h5.17v2.72Z" transform="translate(-6.6 -26.34)"/><path class="cls-1" d="M249.45,239.86a2.72,2.72,0,1,1-2.72-2.72A2.63,2.63,0,0,1,249.45,239.86Zm-5.32,20.75V244.49h5.14v16.11h-5.14Z" transform="translate(-6.6 -26.34)"/><path class="cls-1" d="M268,253.94H256.68a3.73,3.73,0,0,0,3.8,3,5.44,5.44,0,0,0,3.86-1.64l2.72,2.66a9.26,9.26,0,0,1-7,2.84c-5.26,0-8.55-3.29-8.55-8.19s3.41-8.28,8.4-8.28C265.56,244.31,268.37,248.05,268,253.94Zm-5-2.78a3,3,0,0,0-3.11-3.26c-1.79,0-3,1.32-3.35,3.26h6.46Z" transform="translate(-6.6 -26.34)"/><path class="cls-1" d="M282.64,246.08l-1.76,3.35a11.6,11.6,0,0,0-5.08-1.61c-0.93,0-1.59.36-1.59,1.11,0,2.21,8.49,1.14,8.46,6.76,0,3.32-2.9,5.14-6.79,5.14a11.92,11.92,0,0,1-7.23-2.27l1.64-3.29a10.34,10.34,0,0,0,5.71,2c1,0,1.76-.36,1.76-1.11,0-2.36-8.34-1.14-8.31-6.79,0-3.32,2.81-5.11,6.55-5.11A13.18,13.18,0,0,1,282.64,246.08Z" transform="translate(-6.6 -26.34)"/></svg>